<mxfile host="app.diagrams.net" agent="Mozilla/5.0 (Windows NT 10.0; Win64; x64) AppleWebKit/537.36 (KHTML, like Gecko) Chrome/131.0.0.0 Safari/537.36" version="25.0.3">
  <diagram name="第 1 页" id="02cxdgv99CvA-U2xE2fi">
    <mxGraphModel dx="1216" dy="525" grid="1" gridSize="10" guides="1" tooltips="1" connect="1" arrows="1" fold="1" page="1" pageScale="1" pageWidth="3300" pageHeight="4681" math="0" shadow="0">
      <root>
        <mxCell id="0" />
        <mxCell id="1" parent="0" />
        <mxCell id="H8wYjX5WcJpsJir_X8CI-45" value="loop" style="shape=umlFrame;whiteSpace=wrap;html=1;pointerEvents=0;" parent="1" vertex="1">
          <mxGeometry x="10" y="400" width="1090" height="260" as="geometry" />
        </mxCell>
        <mxCell id="H8wYjX5WcJpsJir_X8CI-1" value="&lt;u&gt;:&lt;/u&gt;&lt;div&gt;&lt;u&gt;&lt;br&gt;&lt;/u&gt;&lt;/div&gt;&lt;div&gt;&lt;u&gt;&lt;br&gt;&lt;/u&gt;&lt;/div&gt;&lt;div&gt;&lt;u&gt;老師&lt;/u&gt;&lt;/div&gt;" style="shape=umlLifeline;perimeter=lifelinePerimeter;whiteSpace=wrap;html=1;container=1;dropTarget=0;collapsible=0;recursiveResize=0;outlineConnect=0;portConstraint=eastwest;newEdgeStyle={&quot;curved&quot;:0,&quot;rounded&quot;:0};participant=umlActor;size=50;" parent="1" vertex="1">
          <mxGeometry x="60" y="40" width="40" height="1430" as="geometry" />
        </mxCell>
        <mxCell id="H8wYjX5WcJpsJir_X8CI-2" value="&lt;u&gt;:UI&lt;/u&gt;" style="shape=umlLifeline;perimeter=lifelinePerimeter;whiteSpace=wrap;html=1;container=1;dropTarget=0;collapsible=0;recursiveResize=0;outlineConnect=0;portConstraint=eastwest;newEdgeStyle={&quot;curved&quot;:0,&quot;rounded&quot;:0};" parent="1" vertex="1">
          <mxGeometry x="240" y="40" width="100" height="1440" as="geometry" />
        </mxCell>
        <mxCell id="H8wYjX5WcJpsJir_X8CI-3" value="" style="html=1;points=[[0,0,0,0,5],[0,1,0,0,-5],[1,0,0,0,5],[1,1,0,0,-5]];perimeter=orthogonalPerimeter;outlineConnect=0;targetShapes=umlLifeline;portConstraint=eastwest;newEdgeStyle={&quot;curved&quot;:0,&quot;rounded&quot;:0};" parent="H8wYjX5WcJpsJir_X8CI-2" vertex="1">
          <mxGeometry x="45" y="90" width="10" height="100" as="geometry" />
        </mxCell>
        <mxCell id="H8wYjX5WcJpsJir_X8CI-4" value="" style="html=1;points=[[0,0,0,0,5],[0,1,0,0,-5],[1,0,0,0,5],[1,1,0,0,-5]];perimeter=orthogonalPerimeter;outlineConnect=0;targetShapes=umlLifeline;portConstraint=eastwest;newEdgeStyle={&quot;curved&quot;:0,&quot;rounded&quot;:0};" parent="H8wYjX5WcJpsJir_X8CI-2" vertex="1">
          <mxGeometry x="45" y="220" width="10" height="60" as="geometry" />
        </mxCell>
        <mxCell id="H8wYjX5WcJpsJir_X8CI-5" value="" style="html=1;points=[[0,0,0,0,5],[0,1,0,0,-5],[1,0,0,0,5],[1,1,0,0,-5]];perimeter=orthogonalPerimeter;outlineConnect=0;targetShapes=umlLifeline;portConstraint=eastwest;newEdgeStyle={&quot;curved&quot;:0,&quot;rounded&quot;:0};" parent="H8wYjX5WcJpsJir_X8CI-2" vertex="1">
          <mxGeometry x="45" y="340" width="10" height="330" as="geometry" />
        </mxCell>
        <mxCell id="H8wYjX5WcJpsJir_X8CI-6" value="" style="html=1;points=[[0,0,0,0,5],[0,1,0,0,-5],[1,0,0,0,5],[1,1,0,0,-5]];perimeter=orthogonalPerimeter;outlineConnect=0;targetShapes=umlLifeline;portConstraint=eastwest;newEdgeStyle={&quot;curved&quot;:0,&quot;rounded&quot;:0};" parent="H8wYjX5WcJpsJir_X8CI-2" vertex="1">
          <mxGeometry x="45" y="870" width="10" height="380" as="geometry" />
        </mxCell>
        <mxCell id="H8wYjX5WcJpsJir_X8CI-7" value="&lt;u&gt;:上傳資料&lt;/u&gt;" style="shape=umlLifeline;perimeter=lifelinePerimeter;whiteSpace=wrap;html=1;container=1;dropTarget=0;collapsible=0;recursiveResize=0;outlineConnect=0;portConstraint=eastwest;newEdgeStyle={&quot;curved&quot;:0,&quot;rounded&quot;:0};participant=umlControl;size=60;" parent="1" vertex="1">
          <mxGeometry x="470" y="40" width="60" height="1440" as="geometry" />
        </mxCell>
        <mxCell id="H8wYjX5WcJpsJir_X8CI-8" value="" style="html=1;points=[[0,0,0,0,5],[0,1,0,0,-5],[1,0,0,0,5],[1,1,0,0,-5]];perimeter=orthogonalPerimeter;outlineConnect=0;targetShapes=umlLifeline;portConstraint=eastwest;newEdgeStyle={&quot;curved&quot;:0,&quot;rounded&quot;:0};" parent="H8wYjX5WcJpsJir_X8CI-7" vertex="1">
          <mxGeometry x="25" y="248" width="10" height="22" as="geometry" />
        </mxCell>
        <mxCell id="H8wYjX5WcJpsJir_X8CI-9" value="&lt;u&gt;:顯示&lt;/u&gt;" style="shape=umlLifeline;perimeter=lifelinePerimeter;whiteSpace=wrap;html=1;container=1;dropTarget=0;collapsible=0;recursiveResize=0;outlineConnect=0;portConstraint=eastwest;newEdgeStyle={&quot;curved&quot;:0,&quot;rounded&quot;:0};participant=umlControl;size=58;" parent="1" vertex="1">
          <mxGeometry x="635" y="42" width="60" height="1428" as="geometry" />
        </mxCell>
        <mxCell id="H8wYjX5WcJpsJir_X8CI-10" value="" style="html=1;points=[[0,0,0,0,5],[0,1,0,0,-5],[1,0,0,0,5],[1,1,0,0,-5]];perimeter=orthogonalPerimeter;outlineConnect=0;targetShapes=umlLifeline;portConstraint=eastwest;newEdgeStyle={&quot;curved&quot;:0,&quot;rounded&quot;:0};" parent="H8wYjX5WcJpsJir_X8CI-9" vertex="1">
          <mxGeometry x="25" y="118" width="10" height="72" as="geometry" />
        </mxCell>
        <mxCell id="H8wYjX5WcJpsJir_X8CI-11" value="" style="html=1;points=[[0,0,0,0,5],[0,1,0,0,-5],[1,0,0,0,5],[1,1,0,0,-5]];perimeter=orthogonalPerimeter;outlineConnect=0;targetShapes=umlLifeline;portConstraint=eastwest;newEdgeStyle={&quot;curved&quot;:0,&quot;rounded&quot;:0};" parent="H8wYjX5WcJpsJir_X8CI-9" vertex="1">
          <mxGeometry x="25" y="312" width="10" height="22" as="geometry" />
        </mxCell>
        <mxCell id="H8wYjX5WcJpsJir_X8CI-12" value="" style="html=1;points=[[0,0,0,0,5],[0,1,0,0,-5],[1,0,0,0,5],[1,1,0,0,-5]];perimeter=orthogonalPerimeter;outlineConnect=0;targetShapes=umlLifeline;portConstraint=eastwest;newEdgeStyle={&quot;curved&quot;:0,&quot;rounded&quot;:0};" parent="H8wYjX5WcJpsJir_X8CI-9" vertex="1">
          <mxGeometry x="25" y="558" width="10" height="22" as="geometry" />
        </mxCell>
        <mxCell id="H8wYjX5WcJpsJir_X8CI-13" value="" style="html=1;points=[[0,0,0,0,5],[0,1,0,0,-5],[1,0,0,0,5],[1,1,0,0,-5]];perimeter=orthogonalPerimeter;outlineConnect=0;targetShapes=umlLifeline;portConstraint=eastwest;newEdgeStyle={&quot;curved&quot;:0,&quot;rounded&quot;:0};" parent="H8wYjX5WcJpsJir_X8CI-9" vertex="1">
          <mxGeometry x="25" y="428" width="10" height="22" as="geometry" />
        </mxCell>
        <mxCell id="H8wYjX5WcJpsJir_X8CI-15" value="" style="html=1;points=[[0,0,0,0,5],[0,1,0,0,-5],[1,0,0,0,5],[1,1,0,0,-5]];perimeter=orthogonalPerimeter;outlineConnect=0;targetShapes=umlLifeline;portConstraint=eastwest;newEdgeStyle={&quot;curved&quot;:0,&quot;rounded&quot;:0};" parent="H8wYjX5WcJpsJir_X8CI-9" vertex="1">
          <mxGeometry x="25" y="1218" width="10" height="30" as="geometry" />
        </mxCell>
        <mxCell id="H8wYjX5WcJpsJir_X8CI-22" value=":&lt;u&gt;資料庫&lt;/u&gt;" style="shape=umlLifeline;perimeter=lifelinePerimeter;whiteSpace=wrap;html=1;container=1;dropTarget=0;collapsible=0;recursiveResize=0;outlineConnect=0;portConstraint=eastwest;newEdgeStyle={&quot;curved&quot;:0,&quot;rounded&quot;:0};participant=umlEntity;size=60;" parent="1" vertex="1">
          <mxGeometry x="1260" y="50" width="70" height="1410" as="geometry" />
        </mxCell>
        <mxCell id="H8wYjX5WcJpsJir_X8CI-23" value="" style="html=1;points=[[0,0,0,0,5],[0,1,0,0,-5],[1,0,0,0,5],[1,1,0,0,-5]];perimeter=orthogonalPerimeter;outlineConnect=0;targetShapes=umlLifeline;portConstraint=eastwest;newEdgeStyle={&quot;curved&quot;:0,&quot;rounded&quot;:0};" parent="H8wYjX5WcJpsJir_X8CI-22" vertex="1">
          <mxGeometry x="30" y="131" width="10" height="41" as="geometry" />
        </mxCell>
        <mxCell id="H8wYjX5WcJpsJir_X8CI-24" value="" style="html=1;points=[[0,0,0,0,5],[0,1,0,0,-5],[1,0,0,0,5],[1,1,0,0,-5]];perimeter=orthogonalPerimeter;outlineConnect=0;targetShapes=umlLifeline;portConstraint=eastwest;newEdgeStyle={&quot;curved&quot;:0,&quot;rounded&quot;:0};" parent="H8wYjX5WcJpsJir_X8CI-22" vertex="1">
          <mxGeometry x="30" y="911" width="10" height="45" as="geometry" />
        </mxCell>
        <mxCell id="H8wYjX5WcJpsJir_X8CI-68" value="" style="html=1;points=[[0,0,0,0,5],[0,1,0,0,-5],[1,0,0,0,5],[1,1,0,0,-5]];perimeter=orthogonalPerimeter;outlineConnect=0;targetShapes=umlLifeline;portConstraint=eastwest;newEdgeStyle={&quot;curved&quot;:0,&quot;rounded&quot;:0};" parent="H8wYjX5WcJpsJir_X8CI-22" vertex="1">
          <mxGeometry x="30" y="1170" width="10" height="45" as="geometry" />
        </mxCell>
        <mxCell id="H8wYjX5WcJpsJir_X8CI-25" value="1:查看備課資料()" style="html=1;verticalAlign=bottom;endArrow=block;curved=0;rounded=0;" parent="1" target="H8wYjX5WcJpsJir_X8CI-2" edge="1">
          <mxGeometry width="80" relative="1" as="geometry">
            <mxPoint x="80" y="130" as="sourcePoint" />
            <mxPoint x="160" y="130" as="targetPoint" />
          </mxGeometry>
        </mxCell>
        <mxCell id="H8wYjX5WcJpsJir_X8CI-26" value="2:傳送顯示資料需求()" style="html=1;verticalAlign=bottom;endArrow=block;curved=0;rounded=0;" parent="1" target="H8wYjX5WcJpsJir_X8CI-9" edge="1">
          <mxGeometry width="80" relative="1" as="geometry">
            <mxPoint x="292" y="160" as="sourcePoint" />
            <mxPoint x="502" y="160" as="targetPoint" />
          </mxGeometry>
        </mxCell>
        <mxCell id="H8wYjX5WcJpsJir_X8CI-27" value="3:讀取目前所有備課資料()" style="html=1;verticalAlign=bottom;endArrow=block;curved=0;rounded=0;" parent="1" target="H8wYjX5WcJpsJir_X8CI-22" edge="1">
          <mxGeometry width="80" relative="1" as="geometry">
            <mxPoint x="670" y="180" as="sourcePoint" />
            <mxPoint x="1043" y="180" as="targetPoint" />
          </mxGeometry>
        </mxCell>
        <mxCell id="H8wYjX5WcJpsJir_X8CI-28" value="4:載入目前所有備課資料()" style="html=1;verticalAlign=bottom;endArrow=none;curved=0;rounded=0;dashed=1;startArrow=blockThin;startFill=1;endFill=0;entryX=0;entryY=1;entryDx=0;entryDy=-5;entryPerimeter=0;" parent="1" edge="1">
          <mxGeometry width="80" relative="1" as="geometry">
            <mxPoint x="664.3235294117646" y="221.0000000000001" as="sourcePoint" />
            <mxPoint x="1290" y="221.0000000000001" as="targetPoint" />
          </mxGeometry>
        </mxCell>
        <mxCell id="H8wYjX5WcJpsJir_X8CI-29" value="5:顯示目前所有備課資料()" style="html=1;verticalAlign=bottom;endArrow=none;curved=0;rounded=0;dashed=1;startArrow=blockThin;startFill=1;endFill=0;" parent="1" edge="1">
          <mxGeometry width="80" relative="1" as="geometry">
            <mxPoint x="290" y="230" as="sourcePoint" />
            <mxPoint x="658" y="230.5" as="targetPoint" />
            <mxPoint as="offset" />
          </mxGeometry>
        </mxCell>
        <mxCell id="H8wYjX5WcJpsJir_X8CI-30" value="6:點擊建立備課資料()" style="html=1;verticalAlign=bottom;endArrow=block;curved=0;rounded=0;" parent="1" edge="1">
          <mxGeometry width="80" relative="1" as="geometry">
            <mxPoint x="80" y="260" as="sourcePoint" />
            <mxPoint x="290" y="260" as="targetPoint" />
          </mxGeometry>
        </mxCell>
        <mxCell id="H8wYjX5WcJpsJir_X8CI-31" value="7:傳送備課資料()" style="html=1;verticalAlign=bottom;endArrow=block;curved=0;rounded=0;" parent="1" edge="1">
          <mxGeometry width="80" relative="1" as="geometry">
            <mxPoint x="297" y="290" as="sourcePoint" />
            <mxPoint x="495" y="290" as="targetPoint" />
          </mxGeometry>
        </mxCell>
        <mxCell id="H8wYjX5WcJpsJir_X8CI-32" value="8:輸入備課資料()" style="html=1;verticalAlign=bottom;endArrow=block;curved=0;rounded=0;entryX=0.059;entryY=0.2;entryDx=0;entryDy=0;entryPerimeter=0;" parent="1" target="H8wYjX5WcJpsJir_X8CI-33" edge="1">
          <mxGeometry width="80" relative="1" as="geometry">
            <mxPoint x="507" y="310" as="sourcePoint" />
            <mxPoint x="560" y="310" as="targetPoint" />
          </mxGeometry>
        </mxCell>
        <mxCell id="H8wYjX5WcJpsJir_X8CI-33" value="ref" style="shape=umlFrame;whiteSpace=wrap;html=1;pointerEvents=0;" parent="1" vertex="1">
          <mxGeometry x="960" y="300" width="90" height="60" as="geometry" />
        </mxCell>
        <mxCell id="H8wYjX5WcJpsJir_X8CI-34" value="建議資料" style="text;html=1;align=center;verticalAlign=middle;resizable=0;points=[];autosize=1;strokeColor=none;fillColor=none;" parent="1" vertex="1">
          <mxGeometry x="960" y="330" width="70" height="30" as="geometry" />
        </mxCell>
        <mxCell id="H8wYjX5WcJpsJir_X8CI-35" value="10:顯示推薦備課資料()" style="html=1;verticalAlign=bottom;endArrow=none;curved=0;rounded=0;dashed=1;startArrow=blockThin;startFill=1;endFill=0;entryX=0;entryY=1;entryDx=0;entryDy=-5;entryPerimeter=0;" parent="1" edge="1">
          <mxGeometry width="80" relative="1" as="geometry">
            <mxPoint x="289.5" y="377" as="sourcePoint" />
            <mxPoint x="660" y="377" as="targetPoint" />
          </mxGeometry>
        </mxCell>
        <mxCell id="H8wYjX5WcJpsJir_X8CI-36" value="9:回傳推薦備課資料()" style="html=1;verticalAlign=bottom;endArrow=none;curved=0;rounded=0;dashed=1;startArrow=blockThin;startFill=1;endFill=0;entryX=-0.015;entryY=1;entryDx=0;entryDy=0;entryPerimeter=0;" parent="1" target="H8wYjX5WcJpsJir_X8CI-33" edge="1">
          <mxGeometry width="80" relative="1" as="geometry">
            <mxPoint x="670" y="360" as="sourcePoint" />
            <mxPoint x="710" y="360" as="targetPoint" />
          </mxGeometry>
        </mxCell>
        <mxCell id="H8wYjX5WcJpsJir_X8CI-37" value="11:請求推薦前資料" style="html=1;verticalAlign=bottom;endArrow=block;curved=0;rounded=0;" parent="1" edge="1">
          <mxGeometry width="80" relative="1" as="geometry">
            <mxPoint x="299" y="439.5" as="sourcePoint" />
            <mxPoint x="1034.5" y="439.5" as="targetPoint" />
          </mxGeometry>
        </mxCell>
        <mxCell id="H8wYjX5WcJpsJir_X8CI-38" value="12:傳送推薦前的資料" style="html=1;verticalAlign=bottom;endArrow=none;curved=0;rounded=0;dashed=1;startArrow=blockThin;startFill=1;endFill=0;entryX=0;entryY=1;entryDx=0;entryDy=-5;entryPerimeter=0;" parent="1" edge="1">
          <mxGeometry width="80" relative="1" as="geometry">
            <mxPoint x="670" y="470" as="sourcePoint" />
            <mxPoint x="1030" y="470" as="targetPoint" />
          </mxGeometry>
        </mxCell>
        <mxCell id="H8wYjX5WcJpsJir_X8CI-39" value="14:提出修改提示(提示)" style="html=1;verticalAlign=bottom;endArrow=block;curved=0;rounded=0;" parent="1" edge="1">
          <mxGeometry width="80" relative="1" as="geometry">
            <mxPoint x="80" y="514" as="sourcePoint" />
            <mxPoint x="290" y="514" as="targetPoint" />
          </mxGeometry>
        </mxCell>
        <mxCell id="H8wYjX5WcJpsJir_X8CI-40" value="15:傳送修改條件後備課資料()" style="html=1;verticalAlign=bottom;endArrow=block;curved=0;rounded=0;entryX=0.022;entryY=0.022;entryDx=0;entryDy=0;entryPerimeter=0;" parent="1" target="H8wYjX5WcJpsJir_X8CI-41" edge="1">
          <mxGeometry width="80" relative="1" as="geometry">
            <mxPoint x="294" y="540" as="sourcePoint" />
            <mxPoint x="840" y="540" as="targetPoint" />
          </mxGeometry>
        </mxCell>
        <mxCell id="H8wYjX5WcJpsJir_X8CI-41" value="ref" style="shape=umlFrame;whiteSpace=wrap;html=1;pointerEvents=0;" parent="1" vertex="1">
          <mxGeometry x="950" y="540" width="90" height="60" as="geometry" />
        </mxCell>
        <mxCell id="H8wYjX5WcJpsJir_X8CI-42" value="建議資料" style="text;html=1;align=center;verticalAlign=middle;resizable=0;points=[];autosize=1;strokeColor=none;fillColor=none;" parent="1" vertex="1">
          <mxGeometry x="960" y="570" width="70" height="30" as="geometry" />
        </mxCell>
        <mxCell id="H8wYjX5WcJpsJir_X8CI-43" value="17:顯示推薦備課資料()" style="html=1;verticalAlign=bottom;endArrow=none;curved=0;rounded=0;dashed=1;startArrow=blockThin;startFill=1;endFill=0;entryX=0;entryY=1;entryDx=0;entryDy=-5;entryPerimeter=0;" parent="1" edge="1">
          <mxGeometry width="80" relative="1" as="geometry">
            <mxPoint x="300" y="620" as="sourcePoint" />
            <mxPoint x="655" y="621" as="targetPoint" />
          </mxGeometry>
        </mxCell>
        <mxCell id="H8wYjX5WcJpsJir_X8CI-44" value="16:回傳推薦備課資料()" style="html=1;verticalAlign=bottom;endArrow=none;curved=0;rounded=0;dashed=1;startArrow=blockThin;startFill=1;endFill=0;entryX=-0.015;entryY=1;entryDx=0;entryDy=0;entryPerimeter=0;" parent="1" edge="1">
          <mxGeometry width="80" relative="1" as="geometry">
            <mxPoint x="661" y="600" as="sourcePoint" />
            <mxPoint x="950" y="600" as="targetPoint" />
          </mxGeometry>
        </mxCell>
        <mxCell id="H8wYjX5WcJpsJir_X8CI-51" value="18:提出儲存要求()" style="html=1;verticalAlign=bottom;endArrow=block;curved=0;rounded=0;" parent="1" edge="1">
          <mxGeometry width="80" relative="1" as="geometry">
            <mxPoint x="80" y="910" as="sourcePoint" />
            <mxPoint x="290" y="910" as="targetPoint" />
          </mxGeometry>
        </mxCell>
        <mxCell id="H8wYjX5WcJpsJir_X8CI-52" value="19:抓取要儲存資料編號()" style="html=1;verticalAlign=bottom;endArrow=block;curved=0;rounded=0;" parent="1" edge="1">
          <mxGeometry width="80" relative="1" as="geometry">
            <mxPoint x="297" y="933" as="sourcePoint" />
            <mxPoint x="1030" y="933" as="targetPoint" />
          </mxGeometry>
        </mxCell>
        <mxCell id="H8wYjX5WcJpsJir_X8CI-53" value="20:儲存至資料庫()" style="html=1;verticalAlign=bottom;endArrow=block;curved=0;rounded=0;" parent="1" target="H8wYjX5WcJpsJir_X8CI-22" edge="1">
          <mxGeometry width="80" relative="1" as="geometry">
            <mxPoint x="1040" y="960" as="sourcePoint" />
            <mxPoint x="1250" y="960" as="targetPoint" />
          </mxGeometry>
        </mxCell>
        <mxCell id="H8wYjX5WcJpsJir_X8CI-54" value="21:傳送已儲存的提示和ID()" style="html=1;verticalAlign=bottom;endArrow=none;curved=0;rounded=0;dashed=1;startArrow=blockThin;startFill=1;endFill=0;entryX=0;entryY=1;entryDx=0;entryDy=-5;entryPerimeter=0;" parent="1" source="H8wYjX5WcJpsJir_X8CI-2" target="H8wYjX5WcJpsJir_X8CI-24" edge="1">
          <mxGeometry width="80" relative="1" as="geometry">
            <mxPoint x="1040" y="1005" as="sourcePoint" />
            <mxPoint x="1249" y="1005" as="targetPoint" />
          </mxGeometry>
        </mxCell>
        <mxCell id="H8wYjX5WcJpsJir_X8CI-55" value="&lt;u&gt;:刪除&lt;/u&gt;" style="shape=umlLifeline;perimeter=lifelinePerimeter;whiteSpace=wrap;html=1;container=1;dropTarget=0;collapsible=0;recursiveResize=0;outlineConnect=0;portConstraint=eastwest;newEdgeStyle={&quot;curved&quot;:0,&quot;rounded&quot;:0};participant=umlControl;size=60;" parent="1" vertex="1">
          <mxGeometry x="370" y="40" width="60" height="1440" as="geometry" />
        </mxCell>
        <mxCell id="H8wYjX5WcJpsJir_X8CI-56" value="" style="html=1;points=[[0,0,0,0,5],[0,1,0,0,-5],[1,0,0,0,5],[1,1,0,0,-5]];perimeter=orthogonalPerimeter;outlineConnect=0;targetShapes=umlLifeline;portConstraint=eastwest;newEdgeStyle={&quot;curved&quot;:0,&quot;rounded&quot;:0};" parent="H8wYjX5WcJpsJir_X8CI-55" vertex="1">
          <mxGeometry x="25" y="1090" width="10" height="22" as="geometry" />
        </mxCell>
        <mxCell id="H8wYjX5WcJpsJir_X8CI-59" value="13:顯示推薦備課資料()" style="html=1;verticalAlign=bottom;endArrow=none;curved=0;rounded=0;dashed=1;startArrow=blockThin;startFill=1;endFill=0;entryX=0;entryY=1;entryDx=0;entryDy=-5;entryPerimeter=0;" parent="1" edge="1">
          <mxGeometry width="80" relative="1" as="geometry">
            <mxPoint x="290" y="490" as="sourcePoint" />
            <mxPoint x="660.5" y="490" as="targetPoint" />
          </mxGeometry>
        </mxCell>
        <mxCell id="H8wYjX5WcJpsJir_X8CI-62" value="22:傳送刪除資料要求()" style="html=1;verticalAlign=bottom;endArrow=block;curved=0;rounded=0;" parent="1" target="H8wYjX5WcJpsJir_X8CI-55" edge="1">
          <mxGeometry width="80" relative="1" as="geometry">
            <mxPoint x="290" y="1130" as="sourcePoint" />
            <mxPoint x="723" y="1130" as="targetPoint" />
          </mxGeometry>
        </mxCell>
        <mxCell id="H8wYjX5WcJpsJir_X8CI-63" value="23:刪除所有資料()" style="html=1;verticalAlign=bottom;endArrow=block;curved=0;rounded=0;" parent="1" edge="1">
          <mxGeometry x="0.0023" width="80" relative="1" as="geometry">
            <mxPoint x="400" y="1150" as="sourcePoint" />
            <mxPoint x="1030" y="1150" as="targetPoint" />
            <mxPoint as="offset" />
          </mxGeometry>
        </mxCell>
        <mxCell id="H8wYjX5WcJpsJir_X8CI-64" value="24:回傳已刪除所有資料指示()" style="html=1;verticalAlign=bottom;endArrow=none;curved=0;rounded=0;dashed=1;startArrow=blockThin;startFill=1;endFill=0;entryX=0;entryY=1;entryDx=0;entryDy=-5;entryPerimeter=0;" parent="1" edge="1">
          <mxGeometry width="80" relative="1" as="geometry">
            <mxPoint x="290" y="1180" as="sourcePoint" />
            <mxPoint x="1030" y="1180" as="targetPoint" />
          </mxGeometry>
        </mxCell>
        <mxCell id="H8wYjX5WcJpsJir_X8CI-65" value="25:讀取儲存資料()" style="html=1;verticalAlign=bottom;endArrow=block;curved=0;rounded=0;" parent="1" target="H8wYjX5WcJpsJir_X8CI-22" edge="1">
          <mxGeometry x="0.0023" width="80" relative="1" as="geometry">
            <mxPoint x="300" y="1220" as="sourcePoint" />
            <mxPoint x="930" y="1220" as="targetPoint" />
            <mxPoint as="offset" />
          </mxGeometry>
        </mxCell>
        <mxCell id="H8wYjX5WcJpsJir_X8CI-66" value="26:顯示備課檔案()" style="html=1;verticalAlign=bottom;endArrow=none;curved=0;rounded=0;dashed=1;startArrow=blockThin;startFill=1;endFill=0;entryX=0;entryY=1;entryDx=0;entryDy=-5;entryPerimeter=0;" parent="1" edge="1">
          <mxGeometry width="80" relative="1" as="geometry">
            <mxPoint x="670" y="1260" as="sourcePoint" />
            <mxPoint x="1290" y="1260" as="targetPoint" />
          </mxGeometry>
        </mxCell>
        <mxCell id="H8wYjX5WcJpsJir_X8CI-67" value="27:顯示備課檔案()" style="html=1;verticalAlign=bottom;endArrow=none;curved=0;rounded=0;dashed=1;startArrow=blockThin;startFill=1;endFill=0;entryX=0;entryY=1;entryDx=0;entryDy=-5;entryPerimeter=0;" parent="1" edge="1">
          <mxGeometry width="80" relative="1" as="geometry">
            <mxPoint x="300" y="1290" as="sourcePoint" />
            <mxPoint x="660" y="1290" as="targetPoint" />
          </mxGeometry>
        </mxCell>
        <mxCell id="Kj-FDeYH0eSptQsSQdAA-7" value="&lt;u&gt;:Cache&lt;/u&gt;" style="shape=umlLifeline;perimeter=lifelinePerimeter;whiteSpace=wrap;html=1;container=1;dropTarget=0;collapsible=0;recursiveResize=0;outlineConnect=0;portConstraint=eastwest;newEdgeStyle={&quot;curved&quot;:0,&quot;rounded&quot;:0};participant=umlControl;size=60;" vertex="1" parent="1">
          <mxGeometry x="1000" y="50" width="60" height="1440" as="geometry" />
        </mxCell>
        <mxCell id="Kj-FDeYH0eSptQsSQdAA-8" value="" style="html=1;points=[[0,0,0,0,5],[0,1,0,0,-5],[1,0,0,0,5],[1,1,0,0,-5]];perimeter=orthogonalPerimeter;outlineConnect=0;targetShapes=umlLifeline;portConstraint=eastwest;newEdgeStyle={&quot;curved&quot;:0,&quot;rounded&quot;:0};" vertex="1" parent="Kj-FDeYH0eSptQsSQdAA-7">
          <mxGeometry x="25" y="1090" width="10" height="22" as="geometry" />
        </mxCell>
        <mxCell id="Kj-FDeYH0eSptQsSQdAA-9" value="" style="html=1;points=[[0,0,0,0,5],[0,1,0,0,-5],[1,0,0,0,5],[1,1,0,0,-5]];perimeter=orthogonalPerimeter;outlineConnect=0;targetShapes=umlLifeline;portConstraint=eastwest;newEdgeStyle={&quot;curved&quot;:0,&quot;rounded&quot;:0};" vertex="1" parent="Kj-FDeYH0eSptQsSQdAA-7">
          <mxGeometry x="25" y="390" width="10" height="30" as="geometry" />
        </mxCell>
        <mxCell id="Kj-FDeYH0eSptQsSQdAA-10" value="" style="html=1;points=[[0,0,0,0,5],[0,1,0,0,-5],[1,0,0,0,5],[1,1,0,0,-5]];perimeter=orthogonalPerimeter;outlineConnect=0;targetShapes=umlLifeline;portConstraint=eastwest;newEdgeStyle={&quot;curved&quot;:0,&quot;rounded&quot;:0};" vertex="1" parent="Kj-FDeYH0eSptQsSQdAA-7">
          <mxGeometry x="25" y="880" width="10" height="30" as="geometry" />
        </mxCell>
      </root>
    </mxGraphModel>
  </diagram>
</mxfile>
